<svg width="32" height="13" viewBox="0 0 32 13" fill="none" xmlns="http://www.w3.org/2000/svg">
<g clip-path="url(#clip0_908_2)">
<path d="M30.474 0.281006H26.632H25.577H24.003H20.323H19.643H11.354H5.01699H2.49099H1.41499C1.29699 0.281006 1.18599 0.309006 1.08199 0.348006C1.05899 0.357006 1.03599 0.365006 1.01399 0.376006C0.914994 0.422006 0.824994 0.480006 0.748994 0.555006C0.736994 0.567006 0.728994 0.579006 0.718994 0.591006C0.681994 0.630006 0.643994 0.668006 0.613994 0.713006C0.592994 0.746006 0.580994 0.785006 0.562994 0.820006C0.549994 0.849006 0.534994 0.875006 0.523994 0.905006C0.483994 1.01101 0.455994 1.12301 0.455994 1.24401V1.45701V1.58401V3.67801V4.80501V6.11201V11.45C0.455994 11.575 0.482994 11.69 0.525994 11.8C0.540994 11.837 0.564994 11.868 0.583994 11.904C0.610994 11.954 0.631994 12.008 0.666994 12.052C0.676994 12.065 0.692994 12.07 0.703994 12.081C0.765994 12.151 0.839994 12.204 0.918994 12.254C0.951994 12.275 0.979994 12.303 1.01599 12.319C1.13799 12.376 1.27199 12.413 1.41499 12.413H2.71199H6.68099H8.81699L8.89199 12.466C8.88199 12.447 8.87099 12.432 8.86299 12.413H14.416H19.215H20.795H21.1H24.323H25.11H26.089H28.515H28.976H30.476C30.529 12.413 30.581 12.407 30.632 12.395C30.674 12.387 30.711 12.361 30.752 12.346C30.813 12.326 30.869 12.308 30.926 12.277C30.991 12.242 31.047 12.197 31.106 12.149C31.153 12.11 31.199 12.077 31.241 12.031C31.254 12.017 31.272 12.008 31.285 11.993C31.328 11.941 31.354 11.881 31.388 11.824C31.412 11.784 31.442 11.748 31.46 11.706C31.513 11.587 31.547 11.464 31.547 11.339V9.72901V8.85701V8.32401V4.38701V2.87501V2.50201V1.13301C31.544 0.602006 31.003 0.281006 30.474 0.281006Z" fill="url(#paint0_linear_908_2)"/>
<path d="M30.631 0.160004H1.26001C0.596007 0.160004 0.0570068 0.703004 0.0570068 1.367V11.635C0.0570068 12.301 0.596007 12.84 1.26001 12.84H30.631C31.293 12.84 31.944 12.188 31.944 11.522V1.256C31.943 0.570004 31.275 0.160004 30.631 0.160004ZM30.631 12.246H1.26001C0.924007 12.246 0.653007 11.971 0.653007 11.635V1.367C0.653007 1.031 0.924007 0.758004 1.26001 0.758004H30.631C30.983 0.758004 31.348 0.944004 31.348 1.256V11.522C31.348 11.859 30.965 12.246 30.631 12.246Z" fill="url(#paint1_linear_908_2)"/>
</g>
<defs>
<linearGradient id="paint0_linear_908_2" x1="2.43649" y1="-0.0429944" x2="34.4364" y2="15.04" gradientUnits="userSpaceOnUse">
<stop stop-color="#414042"/>
<stop offset="1" stop-color="#29292A"/>
</linearGradient>
<linearGradient id="paint1_linear_908_2" x1="27.7578" y1="13.084" x2="6.75781" y2="1.334" gradientUnits="userSpaceOnUse">
<stop stop-color="#565759"/>
<stop offset="0.5" stop-color="#666669"/>
<stop offset="1" stop-color="#77787B"/>
</linearGradient>
<clipPath id="clip0_908_2">
<rect width="32" height="13" fill="white"/>
</clipPath>
</defs>
</svg>
