<svg width="32" height="32" viewBox="0 0 32 32" fill="none" xmlns="http://www.w3.org/2000/svg">
  <g clip-path="url(#clip0_3863_1079)">
    <path
      d="M16 0C9.37247 0 4 4.6789 4 10.4503C4 10.4552 4 10.4597 4 10.4646C4 10.706 4.3054 10.7955 4.43492 10.5939C5.10977 9.54021 6.44703 8.82235 7.98646 8.82235C9.73953 8.82235 11.2302 9.75311 11.7794 11.0507C11.862 11.2464 12.1302 11.2464 12.2128 11.0507C12.762 9.75262 14.2527 8.82235 16.0057 8.82235C17.7588 8.82235 19.2337 9.74328 19.79 11.0305C19.8741 11.2252 20.1394 11.2252 20.2235 11.0305C20.7798 9.74328 22.2638 8.82235 24.0078 8.82235C25.553 8.82235 26.8941 9.54513 27.5665 10.6057C27.6936 10.8063 27.9995 10.7119 28 10.472C28 10.4651 28 10.4577 28 10.4508C28 4.6789 22.6275 0 16 0Z"
      fill="white" />
    <path
      d="M26.7779 12.2499C26.6269 12.1604 26.4347 12.2096 26.3415 12.3586L16.7532 23.7456L19.9171 13.1123L19.921 13.0986L19.9224 13.0843C19.9415 12.9009 19.8115 12.7357 19.6332 12.716C19.4598 12.6968 19.3035 12.8222 19.2772 12.9978L16.0019 24.0061L12.7247 12.9919C12.7123 12.9093 12.6712 12.8355 12.6076 12.7829C12.5402 12.7268 12.4551 12.7008 12.3686 12.7106C12.1904 12.7303 12.0604 12.8955 12.0795 13.0789L12.0809 13.0931L15.253 23.7549L5.65841 12.3586C5.56522 12.2091 5.37261 12.1599 5.22206 12.2499C5.06673 12.3423 5.0132 12.5474 5.10305 12.7072L5.10974 12.7195L15.7113 25.3101C15.7371 25.3514 15.772 25.3868 15.8131 25.4129C15.859 25.4463 15.912 25.4674 15.9675 25.4733C15.9789 25.4748 15.9904 25.4753 16.0019 25.4753C16.0803 25.4753 16.1567 25.4458 16.216 25.3922C16.2447 25.3691 16.2691 25.3416 16.2891 25.3096L26.8816 12.7298L26.8907 12.719L26.8974 12.7067C26.9872 12.5469 26.9337 12.3418 26.7784 12.2494L26.7779 12.2499Z"
      fill="white" />
    <path
      d="M22.5477 26.2905H9.53113V27.0177H8.98438V28.6447H9.53113V29.6458H8.98438V31.2728H9.53113V32H22.5477V31.2728H23.0945V29.6458H22.5477V28.6447H23.0945V27.0177H22.5477V26.2905Z"
      fill="white" />
  </g>
  <defs>
    <clipPath id="clip0_3863_1079">
      <rect width="24" height="32" fill="white" transform="translate(4)" />
    </clipPath>
  </defs>
</svg>