<svg width="64" height="64" viewBox="0 0 64 64" fill="none" xmlns="http://www.w3.org/2000/svg">
<path fill-rule="evenodd" clip-rule="evenodd" d="M31.7091 56.9719C46.5026 56.9719 58.4952 45.3611 58.4952 31.0386C58.4952 16.716 46.5026 5.10522 31.7091 5.10522C16.9155 5.10522 4.92291 16.716 4.92291 31.0386C4.92291 45.3611 16.9155 56.9719 31.7091 56.9719ZM32 54C45.2548 54 56 43.7025 56 31C56 18.2975 45.2548 8 32 8C18.7452 8 8 18.2975 8 31C8 43.7025 18.7452 54 32 54Z" fill="white"/>
<path d="M31.9607 28.5H23.9667L27.4607 6.5H35.5L40.7059 8.5L33.2365 24.0191H41.771L23 63L31.9607 28.5Z" fill="white"/>
</svg>
