<svg xmlns="http://www.w3.org/2000/svg" width="55" height="22" fill="none"><path fill="#222851" d="M3.82 0H55l-3.82 22H0L3.82 0Z"/><path fill="#2C335E" fill-rule="evenodd" d="M4.25.52.6 21.48h50.14L54.4.52H4.25ZM3.82 0 0 22h51.18L55 0H3.82Z" clip-rule="evenodd"/><path fill="#6A7DFF" d="M7.64 0h3.05L6.88 22H3.81L7.64 0Z"/><path fill="#fff" fill-opacity=".06" d="M11.03 1.57H13l-3.4 19.38H7.64l3.4-19.38Z"/><path fill="#fff" fill-opacity=".03" d="M13.58 1.57h2.55l-3.4 19.38H10.2l3.39-19.38ZM17.15 1.57h5.09l-3.4 19.38h-5.09l3.4-19.38ZM23.26 1.57H34.2l-3.4 19.38H19.86l3.4-19.38Z"/><path fill="#6A7DFF" d="M3.82 0h3.06L3.06 22H0L3.82 0Z"/></svg>
